<?xml version="1.0" standalone="no"?>
<!DOCTYPE svg PUBLIC "-//W3C//DTD SVG 20010904//EN"
 "http://www.w3.org/TR/2001/REC-SVG-20010904/DTD/svg10.dtd">
<svg version="1.0" xmlns="http://www.w3.org/2000/svg"
 width="512.000000pt" height="512.000000pt" viewBox="0 0 512.000000 512.000000"
 preserveAspectRatio="xMidYMid meet">

<g transform="translate(0.000000,512.000000) scale(0.100000,-0.100000)"
fill="#000000" stroke="none">
<path d="M2405 4984 c-418 -45 -784 -275 -1038 -652 -156 -231 -276 -578 -322
-925 -17 -137 -20 -432 -4 -575 35 -329 141 -672 310 -1003 l79 -155 -21 -48
c-17 -40 -20 -63 -17 -135 6 -144 68 -245 190 -312 60 -33 68 -34 168 -34 94
0 111 3 160 27 75 37 137 100 173 178 27 55 31 76 31 145 -1 148 -71 263 -202
327 -56 28 -79 33 -146 35 l-80 2 -48 87 c-210 380 -311 808 -294 1244 14 349
66 566 202 830 72 140 194 312 272 382 119 106 288 192 470 240 102 27 134 31
257 32 121 1 150 -2 215 -22 245 -77 431 -245 585 -527 88 -161 171 -411 192
-577 l8 -60 115 -33 c63 -19 134 -40 158 -49 l42 -15 0 29 c0 16 -5 64 -10
107 -44 331 -148 623 -306 860 -205 308 -491 510 -817 577 -80 17 -252 27
-322 20z"/>
<path d="M2140 3486 c-161 -34 -282 -182 -283 -346 0 -81 13 -130 55 -200 38
-63 112 -123 183 -147 77 -27 187 -23 256 9 69 31 131 87 166 146 l26 45 196
-6 c372 -10 695 -90 1021 -251 478 -237 788 -545 965 -958 64 -151 86 -242 92
-389 11 -258 -70 -467 -257 -663 -130 -136 -272 -220 -455 -267 -80 -21 -111
-24 -280 -23 -215 1 -318 17 -499 80 -55 20 -108 38 -116 40 -9 3 -45 -20 -85
-53 -39 -33 -103 -84 -143 -115 l-73 -57 48 -21 c153 -69 358 -129 536 -157
137 -21 384 -21 507 0 481 82 887 372 1034 738 133 329 101 759 -81 1124 -211
421 -649 823 -1128 1038 -350 156 -688 231 -1103 244 l-192 6 -21 33 c-71 115
-231 180 -369 150z"/>
<path d="M665 2654 c-434 -352 -659 -782 -658 -1259 0 -235 49 -446 146 -628
175 -328 535 -543 1002 -598 433 -51 1076 124 1506 411 207 138 414 324 559
504 87 108 216 303 273 413 45 88 59 103 95 103 34 0 138 59 180 101 24 24 55
69 70 99 24 49 27 67 27 155 0 89 -3 106 -28 156 -30 62 -103 136 -163 167
-141 72 -315 41 -424 -74 -77 -82 -95 -128 -95 -249 0 -106 12 -142 72 -223
l24 -33 -47 -82 c-210 -368 -500 -643 -939 -892 -159 -91 -294 -149 -435 -190
-421 -121 -860 -86 -1133 91 -143 93 -247 215 -327 386 -58 125 -80 215 -87
353 -11 234 50 429 208 665 66 99 240 287 310 335 31 22 39 33 34 49 -3 12
-22 85 -42 164 -21 78 -40 142 -43 141 -3 0 -41 -29 -85 -65z"/>
</g>
</svg>
