<svg xmlns="http://www.w3.org/2000/svg" xmlns:xlink="http://www.w3.org/1999/xlink" version="1.1" width="1000" height="1000" viewBox="0 0 1000 1000" xml:space="preserve">
<desc>Created with Fabric.js 3.5.0</desc>
<defs>
</defs>
<rect x="0" y="0" width="100%" height="100%" fill="rgba(255,255,255,0)"/>
<g transform="matrix(1.1792 0 0 0.9766 500.4802 500.5192)" id="622345">
<path style="stroke: none; stroke-width: 1; stroke-dasharray: none; stroke-linecap: butt; stroke-dashoffset: 0; stroke-linejoin: miter; stroke-miterlimit: 4; is-custom-font: none; font-file-url: none; fill: rgb(0,0,0); fill-rule: evenodd; opacity: 1;" vector-effect="non-scaling-stroke" transform=" translate(-511.9985, -511.999)" d="M 667.575 684.036 c 29.498 42.729 31.01 91.438 30.54 140.826 c -0.57 59.8 -0.111 119.604 -0.05 179.408 c 0.022 19.207 -0.445 19.731 -19.1 19.729 c -78.256 -0.012 -156.512 -0.005 -234.769 -0.007 c -17.454 0 -19.02 -1.667 -18.996 -19.188 c 0.055 -38.141 0.018 -76.282 0.018 -116.467 c -13.499 1.382 -27.038 2.831 -40.589 4.143 c -66.12 6.401 -123.748 -10.497 -168.359 -62.186 c -6.244 -7.236 -11.229 -15.609 -16.383 -23.721 c -22.712 -35.758 -44.708 -71.988 -68.222 -107.205 c -7.278 -10.897 -18.543 -19.128 -27.959 -28.601 c -4.959 -4.988 -9.87 -10.026 -15.707 -15.965 c 16.315 -10.603 31.94 -7.718 46.736 -5.44 c 36.94 5.688 61.914 28.566 81.694 58.915 c 9.845 15.105 20.032 30.51 32.675 43.164 c 40.49 40.528 89.668 53.605 145.37 40.97 c 35.929 -8.152 28.961 -4.369 34.328 -37.189 c 3.585 -21.921 9.63 -42.799 21.561 -61.729 c 1.978 -3.141 3.617 -6.494 6.054 -10.913 c -15.766 -3.111 -30.49 -5.605 -45.016 -8.956 c -57.636 -13.29 -110.782 -35.758 -152.841 -78.96 c -44.573 -45.789 -68.698 -100.626 -70.376 -164.982 c -1.411 -54.079 -1.079 -107.997 11.167 -161.119 c 7.859 -34.098 22.069 -64.649 47.012 -89.985 c 3.865 -3.928 6.128 -13.232 4.327 -18.359 c -17.77 -50.603 -15.334 -100.626 1.086 -150.939 c 2.823 -8.653 5.798 -10.738 14.439 -8.377 c 31.695 8.664 58.827 25.018 81.457 48.459 c 15.443 15.996 29.577 33.263 44.914 50.663 c 39.151 -28.285 85.473 -29.278 131.177 -31.946 c 50.531 -2.949 101.104 -2.15 150.76 8.614 c 19.284 4.182 37.626 12.71 54.768 18.69 c 20.14 -19.135 40.941 -38.615 61.418 -58.433 c 18.493 -17.898 40.396 -29.047 65.105 -35.647 c 9.458 -2.526 14.257 -0.28 17.46 8.951 c 16.997 48.973 19.867 97.926 0.771 147.019 c -2.784 7.161 -4.695 13.899 1.884 20.188 c 33.405 31.945 50.024 72.171 53.556 117.249 c 3.73 47.601 8.206 95.606 5.865 143.117 c -4.347 88.167 -48.115 154.374 -124.163 198.896 c -40.771 23.87 -85.285 36.961 -131.779 43.855 c -2.664 0.394 -5.354 0.662 -7.979 1.232 C 670.368 682.044 669.446 682.926 667.575 684.036 z" stroke-linecap="round"/>
</g>
</svg>