<?xml version="1.0" standalone="no"?>
<!DOCTYPE svg PUBLIC "-//W3C//DTD SVG 20010904//EN"
 "http://www.w3.org/TR/2001/REC-SVG-20010904/DTD/svg10.dtd">
<svg version="1.0" xmlns="http://www.w3.org/2000/svg"
 width="600.000000pt" height="900.000000pt" viewBox="0 0 600.000000 500.000000"
 preserveAspectRatio="xMidYMid meet">

<g transform="translate(0.000000,860.000000) scale(0.100000,-0.125000)"
fill="#fff" stroke="none">
<path d="M2500 6320 c-55 -4 -24 -9 200 -34 146 -16 282 -31 302 -35 l38 -6
-471 -478 -471 -477 -26 18 c-15 10 -143 101 -285 201 l-257 183 17 23 c10 12
117 140 238 284 217 259 266 321 209 270 -16 -15 -150 -131 -299 -260 -148
-128 -324 -280 -391 -338 -66 -59 -213 -186 -327 -285 -114 -98 -207 -181
-207 -185 0 -3 430 -436 956 -961 526 -525 932 -926 903 -890 -30 36 -93 113
-140 170 -47 58 -195 238 -329 400 -134 162 -390 473 -569 690 -178 217 -358
434 -398 482 -40 47 -73 89 -73 92 0 3 215 6 478 6 l477 0 267 -562 c665
-1405 771 -1628 778 -1628 4 0 51 93 105 208 54 114 134 281 177 371 43 90 78
165 78 166 0 2 40 86 88 186 49 101 202 426 342 722 l254 537 478 0 c263 0
478 -2 478 -5 0 -3 -68 -87 -151 -187 -271 -327 -458 -555 -888 -1078 -233
-283 -447 -542 -474 -575 -28 -33 380 370 906 895 527 525 957 958 957 961 0
4 -93 87 -207 185 -113 99 -315 274 -447 389 -133 116 -304 264 -380 330 -77
66 -157 136 -179 155 -22 19 -38 29 -36 23 4 -10 126 -158 392 -472 60 -71 93
-119 88 -124 -5 -5 -132 -97 -283 -203 l-273 -194 -349 353 c-192 193 -405
409 -473 478 l-124 126 148 17 c433 50 460 54 393 55 -196 5 -1185 5 -1240 1z"/>
</g>
</svg>
