<svg xmlns="http://www.w3.org/2000/svg" xmlns:xlink="http://www.w3.org/1999/xlink" version="1.1" width="1000" height="1000" viewBox="0 0 1000 1000" xml:space="preserve">
<desc>Created with Fabric.js 3.5.0</desc>
<defs>
</defs>
<rect x="0" y="0" width="100%" height="100%" fill="rgba(255,255,255,0)"/>
<g transform="matrix(7.568 0 0 8.3622 500.4976 515.01)" id="377085">
<path style="stroke: none; stroke-width: 1; stroke-dasharray: none; stroke-linecap: butt; stroke-dashoffset: 0; stroke-linejoin: miter; stroke-miterlimit: 4; is-custom-font: none; font-file-url: none; fill: rgb(255,255,255); fill-rule: nonzero; opacity: 1;" vector-effect="non-scaling-stroke" transform=" translate(-203.3164, -651.6554)" d="m 242.07532 656.50439 c 6.79561 -5.99119 6.92073 -6.15091 20.734 -17.349 c 4.23205 -3.80809 4.44755 -4.94154 1.612 -4.93 c -7.18394 0.0292 -6.42922 0.33916 -7.342 2.13 c -1.34046 2.62995 -2.62015 4.12836 -4.27 6.04 c -7.05533 8.09206 -27.9214 27.1862 -27.743 27.406 c 0.49814 0.34683 7.79125 -5.5967 17.009 -13.297 z m -84.42212 -3.84201 c -4.52398 -3.83296 -0.0412 -0.0338 -15.91011 -13.19444 c -7.95272 -6.17163 -3.98215 -9.10086 1.39523 -14.41955 c 2.83408 -2.80314 6.24708 -5.66914 9.077 -8.219 l 2.966 -2.67401 l 47.628 0 l 47.2677 0 l 3.32672 2.67393 c 1.8297 1.47065 5.91423 5.16907 9.07673 8.21869 c 7.76677 7.48956 9.98017 7.2174 1.39485 14.42039 c -20.45453 17.16113 7.58997 -6.47349 -15.91 13.194 c -1.61419 1.40544 -10.56383 9.13138 -18.423 15.407 c -14.1778 11.70646 -26.06414 21.08599 -26.733 21.08599 c -0.70837 0 -12.79348 -9.48876 -26.73345 -21.08614 c -7.71168 -6.41574 -13.89869 -11.5739 -18.42267 -15.40686 z m -14.84388 -13.50699 c 13.79944 11.55849 13.79104 11.57572 20.73353 17.34911 c 6.49681 5.4227 16.44734 13.68099 17.00963 13.29701 c 0.18506 -0.18563 -20.45084 -18.81289 -27.74316 -27.40612 c -1.12554 -1.55272 -3.50259 -3.48984 -4.37 -6.04 c -0.62508 -1.83771 -0.09 -2.23879 -7.242 -2.13 c -2.94309 0.0448 -3.32005 1.06655 1.612 4.93 z m 35.07043 26.18402 c -4.53597 -7.85456 -9.87844 -14.32095 -14.45995 -21.93355 c -5.28113 -8.94557 -3.39176 -9.21887 -10.71248 -9.18047 c -5.03276 0.0264 -6.51135 -0.0512 11.02416 17.83949 c 17.53551 17.8907 14.14827 13.27453 14.14827 13.27453 z m 36.35057 -31.11402 c -9.75202 -0.0393 -10.69424 0.60485 -10.265 4.693 c 2.19571 9.54383 3.71361 19.41015 6.254 29.237 c 0.41441 0.33702 7.65273 -17.69753 10.664 -25.424 c 3.01127 -7.72647 3.09902 -8.46668 -6.653 -8.506 z m -12.116 52.556 c 0.1667 -0.16805 -2.25609 -3.65559 -3.838 -7.793 c -2.70906 -7.08543 -4.38424 -8.29812 -18.46091 -22.47055 c -8.32892 -8.38557 -16.65722 -17.51977 -16.57627 -17.48786 c -1.49039 1.16046 5.18207 9.31745 10.20518 17.13041 c 5.06966 7.88538 8.93969 14.91474 9.332 15.381 c 3.15898 2.96627 5.52611 4.18809 9.865 8.045 c 5.57404 4.95488 8.53671 8.13891 9.473 7.195 z m 21.66251 -54.20498 c 1.05265 -0.35672 0.99781 -0.96396 1.04903 -1.09945 c 0.41029 -1.08504 -1.65028 -4.42917 -1.65028 -4.42917 c -1.09217 -2.14083 -2.21154 -3.89241 -2.46626 -3.89241 c -0.25472 0 -3.81676 1.66801 -7.93687 3.7067 c -4.80903 2.37957 -7.04926 3.99387 -6.26313 4.49331 c 1.43786 0.91349 14.04597 2.31274 17.26751 1.22102 z m 18.42249 10.82898 c -4.44069 6.91744 -9.50248 13.82745 -14.46 21.934 c 0.0752 0.25352 -3.02193 4.65259 14.148 -13.275 c 17.37121 -18.13776 15.2671 -17.95144 11.024 -17.839 c -7.12264 0.19299 -5.02718 0.32454 -10.712 9.18 z m -46.80032 24.75 c 2.56218 -9.62406 3.89148 -19.54045 6.25432 -29.237 c 0.68184 -4.13582 -0.51582 -4.5423 -10.265 -4.693 c -9.74918 -0.1507 -9.74858 0.44471 -6.653 8.506 c 3.09558 8.0613 10.20637 25.70663 10.66368 25.424 z m 52.84032 -49 c -4.87189 -1.28054 -10.56177 -3.55331 -11.72109 -3.0143 c -2.7163 0.63512 -5.42091 1.58014 -7.84476 2.81514 c -3.91676 1.99567 -5.43158 3.22385 -4.443 3.60226 c 14.41541 5.51792 19.83393 7.41475 21.37885 7.49725 c 1.02632 0.0548 4.0114 -1.52674 6.7 -3.50035 c 2.6886 -1.97362 4.75949 -3.92031 4.5 -4.34017 c -0.25948 -0.41986 -4.14021 -1.79851 -8.57 -3.05983 z m -85.271 12.129 c 0.52402 1.06338 12.18325 1.20026 15.145 0.301 c 1.50765 -0.45775 4.96447 -6.93763 4.159 -7.835 c -0.80547 -0.89736 -19.82802 6.47063 -19.304 7.534 z m 13.921 20.871 c 11.56587 11.92505 16.499 15.765 16.499 15.765 c 0 0 -6.06185 -16.05036 -9.504 -24.776 c -3.35089 -8.77812 -4.38597 -8.7665 -13.811 -8.919 c -10.48793 -0.1697 -10.43627 0.14197 6.816 17.93 z m -28.08 -29.94 c -0.32891 0.45455 1.84798 2.59863 4.5 4.34 c 2.5443 1.58057 5.71007 3.64932 6.7 3.5 c 1.56771 -0.27831 14.35046 -4.76687 21.38 -7.5 c 1.79895 -0.71105 -0.82899 -1.65356 -4.44 -3.6 c -2.29867 -1.23904 -5.23995 -2.02102 -7.85 -2.81 c -1.34896 -0.49709 -6.92931 1.72803 -11.72 3.01 c -4.82403 1.41531 -8.24703 2.61366 -8.57 3.06 z m 3.478 4.559 c -3.1544 -2.36347 -5.12595 -3.78726 -5.335 -3.451 c -0.7744 1.24567 -2.51032 7.29635 -1.993 7.947 c 0.64746 0.91414 9.48182 1.135 11.162 0.071 c 0.91351 -0.66399 -0.6796 -2.20353 -3.834 -4.567 z m 46.822 4.581 c 0.55029 -0.39226 -2.42794 -2.51511 -6.263 -4.493 c -3.8753 -1.99866 -7.62358 -3.73671 -7.937 -3.707 c -0.26567 0.0252 -0.71636 0.25621 -2.466 3.892 c -0.44328 0.92114 -1.94366 3.11798 -1.651 4.43 c 0.29213 0.89937 1.80763 1.0249 2.017 1.078 c 3.40273 0.86291 14.85617 -0.23866 16.3 -1.2 z m 22.62517 11.78948 c -3.06782 8.28253 -6.89064 16.33072 -9.50402 24.77517 c 0 0.39194 7.42443 -6.70285 16.49873 -15.76465 c 18.1849 -18.15985 18.04937 -17.80207 6.81637 -17.92973 c -9.43235 -0.10718 -10.66645 0.6898 -13.81108 8.91921 z m 20.64483 -4.11448 c -0.094 -0.0929 -7.89681 9.31016 -16.576 17.757 c -14.25209 13.87056 -15.81601 15.37079 -18.461 22.201 c -1.67064 4.31414 -4.01085 7.58536 -3.83804 7.793 c 0.80746 0.97023 3.28577 -1.88504 9.47304 -7.195 c 4.48729 -4.08121 6.78647 -5.25781 9.865 -8.045 c 0.49656 -0.57468 4.8827 -8.32598 9.332 -15.381 c 4.42162 -7.01113 11.68984 -15.97102 10.205 -17.13 z m -98.44 -10.343 c 2.03833 -5.09977 1.80328 -5.27195 -2.051 -1.532 c -2.34621 2.27662 -3.51247 3.63446 -3.5 4.196 c 0.0125 0.5618 0.87815 0.82621 2.051 0.804 c 1.47285 -0.0222 2.91303 -1.99943 3.5 -3.468 z m 54.803 49.10133 c 0 0 3.86703 9.3426 4.05568 9.04131 c 0.23284 -0.37184 4.07832 -8.87464 4.07832 -8.87464 c 0 0 2.647 -6.74 2.647 -6.74 c 0 0 -6.714 -32.218 -6.714 -32.218 l -6.714 32.14226 c 0 0 1.6722 4.80109 2.647 6.64907 z m 43.9085 -46.50447 c 0.51202 -0.82846 -18.49971 -8.24807 -19.30495 -7.53404 c -0.95189 0.84407 2.28123 7.07589 4.15945 7.83542 c 2.78547 1.12641 14.46379 0.80165 15.1455 -0.30138 z m 18.00866 -0.014 c 0.45219 -0.73167 -1.06928 -6.79819 -1.99314 -7.94721 c -0.14698 -0.18279 -2.54776 1.37023 -5.33508 3.45116 c -3.47108 2.5914 -4.67919 4.03038 -3.83432 4.56703 c 1.69428 1.07619 10.48811 1.02027 11.16254 -0.071 l 0 0.00002 z m 6.57099 0.0813 c 0 -0.44211 -1.575 -2.33039 -3.5 -4.19617 c -3.88158 -3.76218 -4.17237 -3.54497 -2.05103 1.53212 c 0.98566 2.359 2.10481 3.46788 3.5 3.46788 c 1.12807 0 2.05103 -0.36173 2.05103 -0.80383 z m -48 -9.19616 c 0 -0.6196 -14.86665 -6.33218 -16.42115 -6.30711 c -1.82826 0.0295 -16.421 5.64801 -16.421 6.30711 c 0 0.35645 3.7125 2.4003 8.25 4.65 l 8.171 4.08625 l 8.17115 -4.08625 c 4.5375 -2.25004 8.25 -4.34699 8.25 -4.65 z m 21.67823 -6.77142 c -3.58649 0.15849 3.09961 1.65446 6.83677 2.77563 c 3.73716 1.12117 7.05152 1.76812 7.24385 1.57579 c 0.19232 -0.19233 -0.90862 -1.33926 -2.44262 -2.5459 c -2.27423 -1.78891 -6.70011 -2.02373 -11.638 -1.80552 z m -48.8356 3.02141 c 0 0 6.45898 -2.06452 7.22622 -2.82799 c 0.25309 -0.25184 -13.49 -0.375 -13.49 -0.375 l -13.9 0.053 l 5.479 2.9 c 2.4489 1.29685 6.13785 2.90158 7.021 2.9 c 1.62553 -0.0755 3.45223 -1.13751 7.66378 -2.65001 z m 36.15737 -0.25 l 5.47885 -2.89999 l -13.9 -0.0529 c -7.0228 -0.0267 -13.72223 0.14278 -13.49006 0.37494 c 0.81987 0.81987 13.41073 5.45579 14.89006 5.47796 c 0.825 0.0124 3.99615 -1.30198 7.02115 -2.90008 l 0 0.00003 l 0 0.00004 z m -63.52115 -2.76999 c -4.29909 -0.38373 -9.43739 -0.0487 -11.64 1.8 c -1.47694 1.23964 -2.61248 2.38258 -2.44 2.55 c 0.15733 0.15273 4.51323 -0.6543 7.24 -1.58 c 3.6601 -1.09236 9.00253 -2.24858 6.84 -2.77 z" stroke-linecap="round"/>
</g>
</svg>